# xmcd
#
# Track frame offsets:
# 150
# 12677
# 26779
# 41706
# 60383
# 72310
# 81949
# 96014
# 110978
# 135580
# 148785
# 164682
# 176836
# 190416
# 202303
# 222592
# 236732
# 244421
# 258261
# 272513
# 283165
# 296519
# 311219
#
# Disc length: 4303 seconds
#
#
# Revision: 4
# Processed by: cddbd v1.5.1PL0 Copyright (c) Steve Scherf et al.
# Submitted via: FreeRIP 2.52 
#
DISCID=8110cd17
DTITLE=Blue Ribbon Bluegrass
DYEAR=1900
DGENRE=Bluegrass
TTITLE0=Pardon Me - Cox Family
TTITLE1=Train Carrying Jimmie Rodgers Home - Nashville Bluegrass Band
TTITLE2=Every Time You Say Goodbye - Alison Krauss
TTITLE3=Lonesome River - Here Today w\\Vince Gill, David Grisman, Herb Pedersen
TTITLE4=Tallahassee - Luke and Jenny Anne Bulla
TTITLE5=Lost and I'll Never Find The Way - Ricky Skaggs
TTITLE6=You'll Get No More of Me - Lynn Morris Band
TTITLE7=Duncan and Brady - Johnson Mountain Boys
TTITLE8=Who Will Watch the Home Place? - Laurie Lewis
TTITLE9=Bright Sherman Valley - Warrior River Boys
TTITLE10=Galveston Flood - Tony Rice
TTITLE11=Dear Old Mother - Jim and Jessie
TTITLE12=Queen Anne's Lace - Del McCoury Band
TTITLE13=Why Don't You Tell Me So? - J. D. Crowe
TTITLE14=When God Dips His Pen of Love in My Heart - Cox Family
TTITLE15=Old River - James King
TTITLE16=Turkey in the Straw - Vassar Clements
TTITLE17=Here Today and Gone Tomorrow - Hazel Dickens
TTITLE18=Chalk Up Another One - Bluegrass Album Band
TTITLE19=Greenwood - Tony Trischka
TTITLE20=Girl at the Roadside Inn - Dry Branch Fire Squad
TTITLE21=Walk On Boy - Rice Brothers
TTITLE22=River of Jordan - Ricky Skaggs
EXTD=
EXTT0=Cox Family
EXTT1=Nashville Blugrass Band
EXTT2=Alison Kraus and Union Station
EXTT3=Here Today
EXTT4=Luke and Jenny Anne Bulla
EXTT5=Ricky Skaggs
EXTT6=The Lynn Morris Band
EXTT7=Johnson Mountain Boys
EXTT8=Laurie Lewis
EXTT9=Warrior River Boys
EXTT10=Tony Rice
EXTT11=Jim and Jesse
EXTT12=Del McCoury Band
EXTT13=JD Crowe and The New South
EXTT14=Cox Family
EXTT15=James King
EXTT16=Vassar Clements
EXTT17=Hazel Dickens
EXTT18=Bluegrass Album Band
EXTT19=Tony Trischka
EXTT20=Dry Branch Fire Squad
EXTT21=Rice Brothers
EXTT22=Ricky Skaggs
PLAYORDER=
